# xmcd
#
# Track frame offsets:
#	182
#	13165
#	26892
#	37735
#	50257
#	63130
#	75277
#	86972
#	98910
#	109977
#	120635
#	133277
#	144627
#	157047
#
# Disc length: 2266 seconds
#
# Revision: 1
# Processed by: cddbd v1.5.2PL0 Copyright (c) Steve Scherf et al.
# Submitted via: audiograbber 1.83.01
#
DISCID=ba08d80e
DTITLE=Sonny Boy Williamson - Trumpet Masters, Vol. 5 - From The Bottom
DYEAR=1900
DGENRE=Blues
TTITLE0=From The Bottom (prev. unrel.)
TTITLE1=No Nights By Myself
TTITLE2=Shuckin' Mama
TTITLE3=I'm Not Beggin' Nobody
TTITLE4=Boppin' With Sonny
TTITLE5=Empty Bedroom
TTITLE6=Keep It To Yourself
TTITLE7=Going In Your Direction
TTITLE8=Gettin' Out Of Town
TTITLE9=Sonny's Rhythm No. 1
TTITLE10=She's Crazy
TTITLE11=City Of New Orleans
TTITLE12=309
TTITLE13=Cat Hop
EXTD=
EXTT0=
EXTT1=
EXTT2=
EXTT3=
EXTT4=
EXTT5=
EXTT6=
EXTT7=
EXTT8=
EXTT9=
EXTT10=
EXTT11=
EXTT12=
EXTT13=
PLAYORDER=
